<svg width="30" height="30" viewBox="0 0 30 30" fill="none" xmlns="http://www.w3.org/2000/svg">
<path d="M27.5 21.2527C27.4988 24.8414 24.977 27.8408 21.609 28.577L20.8115 26.1845C22.3165 25.9389 23.5956 25.0214 24.3311 23.75H21.25C19.8692 23.75 18.75 22.6308 18.75 21.25V16.25C18.75 14.8693 19.8692 13.75 21.25 13.75H24.9226C24.3075 8.81711 20.0995 5 15 5C9.90048 5 5.69249 8.81711 5.07736 13.75H8.75C10.1307 13.75 11.25 14.8693 11.25 16.25V21.25C11.25 22.6308 10.1307 23.75 8.75 23.75H5C3.61929 23.75 2.5 22.6308 2.5 21.25V15C2.5 8.09644 8.09644 2.5 15 2.5C21.9035 2.5 27.5 8.09644 27.5 15V16.2484V16.25V21.25V21.2527Z" fill="white"/>
</svg>
